<?xml version="1.0" standalone="no"?>
<!DOCTYPE svg PUBLIC "-//W3C//DTD SVG 20010904//EN"
 "http://www.w3.org/TR/2001/REC-SVG-20010904/DTD/svg10.dtd">
<svg version="1.0" xmlns="http://www.w3.org/2000/svg"
 width="50.000000pt" height="50.000000pt" viewBox="0 0 50.000000 50.000000"
 preserveAspectRatio="xMidYMid meet">

<g transform="translate(0.000000,50.000000) scale(0.100000,-0.100000)"
fill="#000000" stroke="none">
<path d="M260 453 c-55 -50 -48 -133 11 -133 31 0 79 51 85 91 11 67 -42 90
-96 42z m78 -24 c4 -35 -43 -91 -72 -87 -32 5 -33 49 0 87 33 39 67 39 72 0z"/>
<path d="M116 431 c-26 -29 -32 -88 -11 -111 36 -40 81 -13 92 54 10 62 -43
99 -81 57z m60 -27 c8 -30 -9 -72 -32 -81 -33 -12 -45 46 -18 85 20 29 42 28
50 -4z"/>
<path d="M384 350 c-27 -11 -64 -57 -64 -81 0 -57 84 -63 133 -9 31 34 34 61
11 84 -17 17 -47 20 -80 6z m74 -36 c4 -29 -52 -76 -87 -72 -39 5 -39 39 0 72
38 33 82 32 87 0z"/>
<path d="M104 269 c-92 -26 -112 -117 -34 -149 19 -8 39 -28 51 -51 52 -103
154 -34 154 104 0 52 -3 62 -28 83 -30 26 -83 31 -143 13z m133 -35 c23 -23
25 -31 20 -76 -9 -71 -35 -113 -73 -113 -23 0 -32 7 -46 35 -10 20 -33 43 -55
55 -31 16 -38 26 -38 50 0 25 7 33 45 53 61 30 114 29 147 -4z"/>
<path d="M350 193 c-26 -10 -50 -35 -50 -53 0 -9 9 -25 20 -35 36 -32 130 0
130 45 0 37 -54 60 -100 43z m69 -22 c35 -22 -26 -69 -73 -57 -32 8 -33 30 -4
50 25 18 56 20 77 7z"/>
</g>
</svg>
