<?xml version="1.0" standalone="no"?>
<!DOCTYPE svg PUBLIC "-//W3C//DTD SVG 20010904//EN"
 "http://www.w3.org/TR/2001/REC-SVG-20010904/DTD/svg10.dtd">
<svg version="1.0" xmlns="http://www.w3.org/2000/svg"
 width="30.000000pt" height="30.000000pt" viewBox="0 0 30.000000 30.000000"
 preserveAspectRatio="xMidYMid meet">

<g transform="translate(0.000000,30.000000) scale(0.100000,-0.100000)"
fill="#000000" stroke="none">
<path d="M20 149 l0 -99 59 0 c38 0 61 -5 65 -12 5 -11 7 -11 12 0 4 7 27 12
65 12 l59 0 0 99 0 100 -130 0 -130 0 0 -100z m118 -1 l3 -78 -51 0 -50 0 0
81 0 80 48 -3 47 -3 3 -77z m122 2 l0 -80 -50 0 -50 0 0 73 c0 41 3 77 7 80 3
4 26 7 50 7 l43 0 0 -80z"/>
</g>
</svg>
