<?xml version="1.0" standalone="no"?>
<!DOCTYPE svg PUBLIC "-//W3C//DTD SVG 20010904//EN"
 "http://www.w3.org/TR/2001/REC-SVG-20010904/DTD/svg10.dtd">
<svg version="1.0" xmlns="http://www.w3.org/2000/svg"
 width="30.000000pt" height="30.000000pt" viewBox="0 0 30.000000 30.000000"
 preserveAspectRatio="xMidYMid meet">

<g transform="translate(0.000000,30.000000) scale(0.100000,-0.100000)"
fill="#000000" stroke="none">
<path d="M171 254 c-15 -11 -21 -23 -18 -36 4 -14 -5 -26 -33 -46 -39 -27 -55
-54 -63 -102 -4 -25 -4 -25 -12 -2 -8 24 -25 30 -25 8 0 -31 30 -46 93 -46 55
1 60 2 44 15 -18 13 -18 14 2 34 20 20 21 20 21 2 0 -33 11 -51 31 -51 19 0
26 16 10 22 -10 3 -16 50 -13 111 1 26 8 40 20 44 17 6 32 22 32 34 0 6 -46
29 -58 29 -4 0 -18 -7 -31 -16z"/>
<path d="M232 113 c2 -10 12 -18 23 -18 11 0 21 8 23 18 3 13 -3 17 -23 17
-20 0 -26 -4 -23 -17z"/>
</g>
</svg>
